<?xml version="1.0" encoding="utf-8"?>
<!-- Generator: Adobe Illustrator 25.2.3, SVG Export Plug-In . SVG Version: 6.00 Build 0)  -->
<svg version="1.1" id="Capa_1" xmlns="http://www.w3.org/2000/svg" xmlns:xlink="http://www.w3.org/1999/xlink" x="0px" y="0px"
	 viewBox="0 0 597 115" style="enable-background:new 0 0 597 115;" xml:space="preserve">
<style type="text/css">
	.st0{fill:#FCD600;}
</style>
<g id="Capa_2_1_">
	<g id="arte">
		<image style="overflow:visible;enable-background:new    ;" width="597" height="146" xlink:href="6DEB6DCA.png" >
		</image>
		<g id="Capa_2-2">
			<g id="arte-2">
				<path class="st0" d="M70.3,64.7c0.5-0.1,1,0.2,1.2,0.7c0.2,0.4,0.2,1,0,1.4c-0.2,0.5-0.7,0.8-1.2,0.7c-2.3,0.1-4.6,0.3-6.9,0.7
					c-1.5,8.3-3.7,15-6.5,20s-6.3,7.5-10.3,7.6c-2.7,0.1-5.3-1.2-6.9-3.4c-1.5-2-2.4-4.5-2.4-7.1c0-4.5,2-8.4,6-11.8
					c4.2-3.5,9.3-6,14.7-7.2c1.3-7.8,2.1-15.6,2.3-23.5c-3.1,1-5.7,3.2-7,6.2c-0.7,1.8-0.9,3.9-0.5,5.8c0.4,2,1.3,3.8,2.7,5.3
					c0.3,0.4,0.4,0.9,0.3,1.4c-0.1,0.4-0.5,0.8-0.9,0.9c-0.5,0.1-1,0-1.4-0.4c-1.7-1.8-2.9-4.1-3.4-6.5c-0.6-2.4-0.4-5,0.6-7.3
					c0.6-1.6,1.6-3,2.8-4.2c1.2-1.2,2.6-2.2,4.2-3c1.5-0.8,3.2-1.3,4.9-1.6c0.5-0.1,1.1-0.1,1.6,0c0.5,0.2,1,0.4,1.4,0.8
					c0.4,0.4,0.6,0.9,0.5,1.4c0,3.6-0.2,7.1-0.6,10.7c-0.5,5.5-1.1,9.8-1.6,13C65.8,65,68,64.9,70.3,64.7z M45.2,92.7
					c4.7,0,8.8-7.8,12.3-23.5c-2.4,0.7-4.6,1.6-6.8,2.8c-2.6,1.5-5,3.4-7,5.6c-2,2-3.2,4.6-3.4,7.4c0,1.8,0.5,3.6,1.4,5.2
					C42.7,91.9,43.8,92.8,45.2,92.7z"/>
				<path class="st0" d="M96.8,64.7c0.4,0,0.8,0.2,1.1,0.5c0.3,0.2,0.5,0.6,0.3,1c-0.1,0.3-0.5,1.4-1.1,3s-1,2.8-1.3,3.4
					s-0.7,1.6-1.3,3c-0.4,1.1-0.9,2.1-1.5,3.1c-0.4,0.6-1,1.4-1.6,2.2c-0.5,0.7-1.1,1.3-1.9,1.7c-0.6,0.3-1.3,0.5-2,0.5
					c-1.5,0-2.9-0.5-4-1.5c-1-0.9-1.8-2.1-2.1-3.4c-0.3-1.3-0.5-2.5-0.7-3.8c-0.2-0.9-0.2-1.9,0-2.8c-1,1.6-2.3,3-3.8,4.2
					c-0.9,0.7-2,1.2-3.2,1.3c-0.7,0-1.4-0.2-2-0.7c-0.6-0.4-1.1-1-1.4-1.7c-0.3-0.7-0.6-1.5-0.8-2.2c-0.2-0.7-0.3-1.3-0.4-2
					C69,70.1,69,69.6,69,69.2c0-1.8,0.2-3.5,0.4-5.3c0.3-2,0.8-3.4,1.6-4.1c0.6-0.5,1.5-0.6,2.8-0.1c1,0.3,2,0.9,2.6,1.8
					c0.3,0.7,0.3,1.5,0.1,2.3c-0.4,1.8-0.7,3.6-0.8,5.4v2.2c0,0.5,0,1,0.1,1.5c0.4,0,1.3-1,2.8-3.1c1.2-1.6,2.3-3.4,3.2-5.2
					c0.1-0.2,0.2-0.5,0.2-0.7c0.5-1.8,0.8-2.8,1.1-3c0.7-0.7,1.8-0.7,3.5-0.1s2.5,1.5,2.7,2.4c0,0.9-0.2,1.8-0.5,2.6
					c-0.9,3.1-1.5,6.3-1.8,9.5c-0.1,1,0,2,0.2,3c0.2,1.1,0.6,1.7,1.1,1.7c0.3,0,0.8-0.4,1.4-1.3c0.7-1,1.3-2.1,1.8-3.2
					c0.7-1.3,1.1-2.6,1.7-3.7s0.9-2.4,1.4-3.5c0.2-0.7,0.5-1.3,0.8-1.9C95.8,65.2,96.3,64.7,96.8,64.7z"/>
				<path class="st0" d="M117.9,65.4c0.2-0.4,0.6-0.7,1.1-0.7c0.5,0,0.9,0.3,1.2,0.7c0.3,0.4,0.4,0.9,0.2,1.4
					c-0.5,0.9-1,1.9-1.5,2.8s-1.3,2.1-2.3,3.6c-0.9,1.4-2.1,2.6-3.4,3.7c-1,0.8-2.3,1.3-3.6,1.4c-2.6,0-4.2-1.5-4.9-4.3
					c-0.1,0.2-0.3,0.5-0.4,0.7c-0.1,0.2-0.3,0.4-0.4,0.6c-0.2,0.2-0.4,0.5-0.6,0.7c-0.2,0.3-0.4,0.5-0.7,0.7
					c-0.2,0.3-0.5,0.5-0.8,0.7l-0.9,0.6c-0.3,0.2-0.6,0.3-1,0.3c-0.4,0.1-0.7,0.1-1.1,0.1c-1.6,0-3-0.9-3.6-2.3
					C94.4,74.6,94,73,94,71.3c-0.2-2.9,0.9-5.8,3-7.9c2-1.9,3.9-2.8,5.7-2.8c1.1,0,2.1,0.3,3,0.9c0.3-1.1,0.8-1.8,1.5-2
					c1.2-0.4,2.5-0.3,3.5,0.4c1.1,0.5,1.6,1.7,1.3,2.9c-0.2,1-0.5,2.1-0.8,3.1c-0.4,1.3-0.7,2.6-0.9,4c-0.2,1.1-0.3,2.1-0.3,3.2v1.1
					c0,0.3,0.1,0.4,0.2,0.4l0.1,0.1c0.9,0,1.9-0.7,3.2-2.1c1.1-1.2,2-2.4,2.8-3.8C116.8,67.6,117.3,66.5,117.9,65.4z M104.3,68.6
					c0.1-1.4,0.3-2.7,0.6-4.1c0-0.6-0.2-0.9-0.7-0.8c-1.6-0.2-3.2,0.6-4,2.1c-0.9,1.5-1.5,3.2-1.6,5c0,0.8,0.1,1.6,0.3,2.3
					c0.2,0.9,0.5,1.3,1,1.3c1,0,1.9-0.8,2.9-2.3C103.5,71,104,69.8,104.3,68.6z"/>
				<path class="st0" d="M139.3,66.7c0.1-0.6,0.7-1.1,1.4-0.9c0,0,0.1,0,0.1,0c0.1,0,0.1,0,0.2,0.1c0.6,0,1.1,0.5,1,1.2
					c0,0.2-0.1,0.3-0.1,0.4c-4.2,15.1-7.7,22.6-10.6,22.6c-4.5,0-6.3-4.2-5.4-12.5c0.1-0.9,0.3-2.2,0.6-4.1s0.5-3.3,0.6-4.2v-1.1
					c-1.2,1.1-2.2,2.5-2.8,4c-0.8,1.5-1.4,3.2-1.6,4.9c0,0.3-0.2,0.6-0.7,0.9c-1,0.5-2.1,0.4-3-0.2c-1-0.6-1.7-1.7-1.6-2.9
					c-0.3-3-0.3-6,0.1-9c0-0.1,0-0.3,0.1-0.4c0-0.3,0.2-0.6,0.4-0.8c0.8-0.8,2-1.1,3-0.7c1.1,0.2,2.1,0.9,2.5,2v1
					c0,0.4-0.1,0.7-0.3,1c-0.1,0.3-0.2,0.7-0.3,1c2.6-5.1,5.1-7.6,7.5-7.6c1.9,0,2.7,1.6,2.5,4.7c-0.1,1.3-0.4,3.6-0.9,6.9
					c-0.6,3.5-1,5.9-1.1,7.2s-0.2,2.4-0.2,3.2c0.1,1.6,0.3,2.4,0.6,2.4c1.3,0,3-3.1,5.1-9.2c0.3-1.1,0.8-2.8,1.5-5.1
					C138.5,69.2,139,67.6,139.3,66.7z"/>
				<path class="st0" d="M204.3,41.9c0.3-0.4,0.9-0.5,1.4-0.3c0.5,0.1,0.9,0.5,1,1c0.1,0.5,0,1-0.4,1.3c-1.7,1.5-3.8,2.5-6,3
					c-2.5,0.6-5.1,0.7-7.7,0.3c-1.4-0.3-4.1-0.9-8-1.9c-0.1-0.1-0.2-0.1-0.3-0.1H184l-0.4-0.2v0.7c-0.2,0.6-0.4,1.2-0.6,1.8
					c-0.2,0.6-0.4,1.1-0.5,1.7c-0.8,2.7-1.4,5.4-1.8,8.2c2.8,0.3,5,0.2,6.4-0.5c0.5-0.3,1-0.3,1.5,0c0.4,0.2,0.7,0.7,0.7,1.2
					c0,0.5-0.3,0.9-0.7,1.1c-2,1-4.7,1.3-8,0.9h-0.1l-0.1-0.1c-0.2,1.2-0.4,2.4-0.5,3.5c-0.6,5.5-0.9,11.1-0.7,16.7
					c0.1,0.5,0.1,0.9,0,1.4c-0.1,0.5-0.1,1-0.2,1.5c-0.1,0.5-0.3,0.9-0.6,1.3c-0.4,0.4-0.8,0.6-1.3,0.8c-1,0.4-2.1-0.1-2.5-1.1
					c0,0,0,0,0,0c-0.5-1.1-0.8-2.3-0.8-3.5c-0.1-5.3,0.1-10.6,0.7-15.9c0.2-1.9,0.5-3.7,0.8-5.4h-0.1c-1.8-0.4-3.6-0.3-5.3,0.1
					c-0.5,0.2-1,0.1-1.3-0.3c-0.3-0.4-0.5-0.9-0.4-1.4c0.1-0.5,0.5-1,1-1.1c2.2-0.6,4.4-0.6,6.6-0.2c0.8-4.1,2-8.1,3.5-12
					c0-0.1,0-0.2,0.1-0.2s0-0.2,0.1-0.2l-4.2-1c-3.5-0.6-6.3-0.3-8.3,1c-0.8,0.6-1.4,0.3-1.9-0.6c-0.3-0.6-0.1-1.3,0.5-1.6
					c0,0,0,0,0,0h0.1c2.5-1.6,5.7-2.1,9.7-1.5c2.1,0.4,5.1,1.1,8.9,2.1s6.6,1.7,8.2,2C197.2,45.2,201.2,44.4,204.3,41.9z"/>
				<path class="st0" d="M209.2,65.9c0.4,0,0.8,0.2,1.1,0.5c0.2,0.3,0.3,0.7,0.3,1.1c-0.1,0.9-0.5,1.3-1.3,1.1c-4.2,0.1-7.2-1.2-9-4
					c-0.7,1.6-1.3,3.1-1.9,4.8c-0.8,2.5-1.6,5.1-2.2,7.9c-0.1,0.3-0.3,0.6-0.6,0.8c-0.3,0.2-0.7,0.3-1.1,0.4c-1,0.2-2-0.1-2.7-0.8
					c-0.6-0.9-1-1.9-1-3c-0.3-2.9-0.2-5.8,0.2-8.6c0-0.1,0-0.3,0.1-0.4c0-0.2,0.1-0.5,0.3-0.6c0.5-1,1.7-1.3,2.7-0.8l0,0
					c1.3,0.5,2.1,1.8,1.8,3.2c-0.1,0.4-0.1,0.8-0.1,1.2c0.6-2.1,1.4-4.2,2.4-6.1c1-2,2.1-2.9,3.3-2.9c0.3,0,0.5,0.1,0.8,0.2l0.6,0.4
					c0.2,0.1,0.4,0.3,0.5,0.6c0.1,0.2,0.3,0.4,0.4,0.6s0.2,0.4,0.4,0.7l0.4,0.7C205.5,64.6,207.3,65.8,209.2,65.9z"/>
				<path class="st0" d="M230.4,65.4c0.2-0.4,0.6-0.7,1.1-0.7c0.5,0,0.9,0.3,1.2,0.7c0.3,0.4,0.4,1,0.1,1.4c-0.5,0.9-1,1.9-1.5,2.8
					s-1.3,2.1-2.3,3.6c-0.9,1.4-2.1,2.6-3.4,3.7c-1,0.8-2.3,1.3-3.6,1.4c-2.6,0-4.2-1.5-4.9-4.3c-0.1,0.3-0.3,0.5-0.5,0.7l-0.4,0.6
					c-0.2,0.2-0.4,0.5-0.6,0.7s-0.4,0.5-0.6,0.7c-0.2,0.3-0.5,0.5-0.8,0.7l-0.9,0.6c-0.3,0.2-0.6,0.3-1,0.3
					c-0.4,0.1-0.7,0.1-1.1,0.1c-1.6,0-3-0.9-3.6-2.3c-0.8-1.5-1.2-3.1-1.2-4.8c-0.2-2.9,0.9-5.8,3-7.9c2-1.9,3.9-2.8,5.7-2.8
					c1.1,0,2.1,0.3,3,0.9c0.3-1.1,0.8-1.8,1.5-2c1.2-0.4,2.5-0.3,3.5,0.4c1.1,0.5,1.6,1.7,1.3,2.9c-0.2,1-0.5,2.1-0.8,3.1
					c-0.4,1.3-0.7,2.6-0.9,4c-0.2,1.1-0.3,2.1-0.3,3.2c0,0.4,0,0.7,0.1,1.1c0,0.3,0.1,0.4,0.2,0.4l0.1,0.1c0.9,0,1.9-0.7,3.2-2.1
					c1.1-1.2,2-2.4,2.8-3.8C229.4,67.4,229.9,66.4,230.4,65.4z M216.8,68.6c0.1-1.3,0.3-2.7,0.6-4c0-0.6-0.2-0.9-0.7-0.8
					c-1.6-0.2-3.2,0.6-3.9,2.1c-0.9,1.5-1.5,3.2-1.6,5c0,0.8,0.1,1.6,0.3,2.3c0.2,0.9,0.5,1.3,1,1.3c0.9,0,1.9-0.8,2.9-2.3
					C216.1,71.1,216.6,69.9,216.8,68.6z"/>
				<path class="st0" d="M251.9,66.7c0.1-0.6,0.7-1.1,1.4-0.9c0,0,0.1,0,0.1,0c0.1,0,0.1,0,0.2,0.1c0.6,0,1.1,0.5,1,1.2
					c0,0.2-0.1,0.3-0.1,0.4c-4.2,15.1-7.7,22.7-10.6,22.7c-4.5,0-6.3-4.2-5.4-12.5c0.1-0.9,0.3-2.2,0.6-4.1s0.5-3.3,0.6-4.2v-1.2
					c-1.2,1.1-2.2,2.5-2.8,4c-0.8,1.5-1.3,3.2-1.6,4.9c0,0.3-0.2,0.6-0.7,0.9c-1.6,0.8-3.6,0.1-4.4-1.5c0,0,0,0,0-0.1
					c-0.2-0.5-0.3-1.1-0.3-1.6c-0.3-3-0.3-6,0.1-9c0-0.1,0-0.3,0.1-0.4c0.1-0.3,0.2-0.6,0.4-0.8c0.8-0.8,1.9-1.1,3-0.7
					c1.1,0.2,2.1,0.9,2.5,2v1c0,0.4-0.1,0.7-0.3,1c-0.1,0.3-0.2,0.7-0.3,1c2.6-5.1,5.1-7.6,7.5-7.6c1.9,0,2.7,1.6,2.5,4.7
					c-0.1,1.3-0.4,3.6-0.9,6.9c-0.6,3.5-1,5.9-1.1,7.2s-0.2,2.4-0.2,3.2c0.1,1.6,0.3,2.4,0.6,2.4c1.3,0,3-3.1,5.1-9.2
					c0.3-1.1,0.8-2.8,1.5-5.1C251.1,69.1,251.5,67.6,251.9,66.7z"/>
				<path class="st0" d="M267.9,65.7c0.1-0.5,0.6-0.9,1.1-0.9c0.5-0.1,1,0.1,1.3,0.4c0.3,0.3,0.4,0.8,0.2,1.2
					c-0.5,1.3-1,2.5-1.6,3.8s-1.4,2.7-2.4,4.5c-0.9,1.6-1.9,3.2-3.1,4.6c-1,1.3-2.2,2.5-3.6,3.4c-1.2,0.9-2.6,1.4-4.1,1.4
					c-2.7,0-4.6-0.9-5.7-2.7c-1.1-1.9-1.7-4-1.6-6.2c0.2-2.9,1.1-5.7,2.7-8.1c1.8-2.9,3.9-4.4,6.4-4.4c1-0.1,2,0.3,2.6,1.1
					c0.6,0.7,0.9,1.7,0.9,2.6c0.1,0.7-0.3,1.3-1,1.4c-0.4,0.1-0.8,0-1.2-0.2c-0.3-0.1-0.5-0.5-0.6-0.8c-0.1-0.6-0.2-0.9-0.3-0.9
					c-0.5,0.2-0.9,0.5-1.2,0.9c-1.6,1.9-2.6,4.3-2.8,6.8c-0.2,1.5-0.1,3,0.4,4.4c0.5,1.6,1.4,2.4,2.6,2.4c1.3-0.1,2.5-0.8,3.3-1.8
					c1.3-1.3,2.4-2.8,3.3-4.5c1-1.8,1.8-3.4,2.5-4.7C266.8,68.3,267.5,67,267.9,65.7z"/>
				<path class="st0" d="M286,64.7c0.4,0,0.8,0.1,1.1,0.4c0.3,0.2,0.4,0.6,0.4,0.9c-0.5,1.8-1.2,3.7-1.9,5.7s-1.7,4.3-2.9,7
					c-1.1,2.4-2.6,4.7-4.4,6.6c-1.7,1.7-3.4,2.6-5.1,2.6c-4.6,0-6.9-3.6-6.9-10.8c0.1-3.1,0.4-6.2,1-9.2c0.7-4,1.4-6.5,2-7.3
					s2.4-0.8,4.7,0.6c0.8,0.3,1.3,1,1.4,1.8c0.1,0.4,0,0.8-0.1,1.2c-2.2,9.7-3.1,15.8-2.7,18.5c0.2,1.4,0.7,2.1,1.5,2.1
					s1.9-0.8,3.1-2.4c1.3-1.8,2.5-3.8,3.3-5.9c1-2.3,1.9-4.4,2.6-6.3s1.2-3.4,1.6-4.5C284.8,65.1,285.4,64.6,286,64.7z M275.2,58.4
					c-0.8,0.2-1.7,0.3-2.5,0.1c-0.8-0.1-1.6-0.5-2.3-1c-0.5-0.3-0.8-0.9-0.8-1.5c0.2-0.6,0.6-1,1.2-1.1c0.8-0.2,1.7-0.3,2.6-0.1
					c0.9,0.1,1.7,0.5,2.4,1c0.5,0.3,0.8,0.9,0.8,1.5C276.4,57.9,275.9,58.3,275.2,58.4L275.2,58.4z"/>
				<path class="st0" d="M303.3,64.7c0.4-0.2,0.9-0.1,1.2,0.3c0.3,0.4,0.5,0.9,0.4,1.4c0,0.5-0.4,1-0.9,1.1c-2.3,1-4.5,2.3-6.5,3.9
					c-0.8,0.6-1.6,1.3-2.3,1.9c1.3,0.8,2.2,2.1,2.7,3.5c0.3,1.2,0.3,2.4-0.1,3.6c-0.3,1.1-1,2.1-2,2.8c-1,0.6-2.1,1-3.3,1.1
					c-1.1,0.1-2.3,0-3.4-0.4c-1-0.5-1.7-1.3-2.1-2.3c-0.4-1-0.3-2.1,0.1-3.1c0.9-1.8,2.1-3.4,3.6-4.8c-0.3-0.1-0.6-0.3-0.9-0.5
					c-1.8-1.1-3.4-2.6-4.7-4.4c-1-1.6-1.1-3.6-0.2-5.2c0.9-2.2,2.7-3.5,5.4-4c3.2-0.5,5.4,0.7,6.4,3.4c0.3,0.9,0,1.4-0.9,1.6
					c-0.7,0.3-1.4,0-1.7-0.7c0-0.1,0-0.1-0.1-0.2c-0.1-0.3-0.3-0.5-0.5-0.7c-0.5-0.5-1.3-0.4-2.4,0.5c-1,0.7-1.5,1.8-1.5,3
					c0.1,1.6,1.1,3.2,3,5h0.1C295.9,68.7,299.5,66.4,303.3,64.7z M290.7,81.3c1,0,2-0.4,2.8-1.1c0.9-0.6,1.3-1.7,1.1-2.7
					c-0.3-0.9-0.8-1.8-1.5-2.5c-0.6,0.6-1.2,1.2-1.7,1.8c-1.3,1.4-1.9,2.5-1.9,3.1C289.5,80.9,289.9,81.3,290.7,81.3z"/>
				<path class="st0" d="M318.8,65.7c0.1-0.5,0.6-0.9,1.1-0.9c0.5-0.1,1,0.1,1.3,0.4c0.3,0.3,0.4,0.8,0.2,1.2
					c-0.5,1.3-1,2.5-1.6,3.8s-1.4,2.7-2.4,4.5c-0.9,1.6-1.9,3.2-3.1,4.6c-1,1.3-2.2,2.5-3.6,3.4c-1.1,0.9-2.6,1.4-4,1.4
					c-2.7,0-4.6-0.9-5.7-2.7c-1.1-1.9-1.7-4-1.6-6.2c0.2-2.9,1.1-5.7,2.7-8.1c1.8-2.9,3.9-4.4,6.4-4.4c1,0,1.9,0.4,2.5,1.1
					c0.6,0.7,0.9,1.7,0.9,2.6c0.1,0.7-0.3,1.3-1,1.4c-0.4,0.1-0.8,0-1.2-0.2c-0.3-0.1-0.5-0.5-0.5-0.8c-0.1-0.6-0.2-0.9-0.3-0.9
					c-0.5,0.2-0.9,0.5-1.2,0.9c-1.6,1.9-2.6,4.3-2.8,6.8c-0.2,1.5,0,3,0.4,4.4c0.5,1.6,1.4,2.4,2.6,2.4c1.3-0.1,2.5-0.8,3.3-1.8
					c1.3-1.3,2.4-2.8,3.3-4.5c1-1.8,1.9-3.4,2.5-4.7S318.3,66.9,318.8,65.7z"/>
				<path class="st0" d="M341.8,65.1c0.3-0.4,0.8-0.5,1.3-0.4c0.7,0.2,1.2,1,1,1.7l-0.3,0.6c-0.8,0.9-1.7,1.6-2.7,2.3
					c-1.3,0.9-2.7,1.6-4.1,2.3c-0.3,1.5-0.8,2.9-1.5,4.3c-0.8,1.7-1.7,3.4-2.7,5.1c-1.1,1.7-2.4,3.2-4,4.5c-1.4,1.1-3.2,1.7-5,1.8
					c-4.5,0-6.7-3.4-6.7-10.2c0-2.9,0.5-5.8,1.5-8.5c-0.6-1.4-0.8-2.8-0.8-4.3c0-0.8,0.2-1.6,0.5-2.4c0.4-1.1,0.9-2.1,1.4-3.1
					c0.7-1.3,1.9-2.3,3.2-2.9c1.6-0.8,3.4-1.2,5.2-1.2c1.6,0,3.2,0.3,4.6,1.1c1.1,0.6,2.1,1.5,2.8,2.5c0.7,1,1.1,2.2,1.4,3.4
					c0.2,0.9,0.4,1.9,0.6,2.9c0.1,1.2,0.1,2.4,0,3.6C339.2,67.5,340.6,66.4,341.8,65.1z M334.7,67.3v-1.2c0-0.5-0.1-1.1-0.1-1.9
					c-0.1-0.8-0.3-1.5-0.6-2.2c-0.3-0.7-0.7-1.4-1.1-2c-0.5-0.7-1.1-1.2-1.9-1.5c-0.8-0.4-1.8-0.6-2.7-0.6c-1.8-0.2-3.6,0.6-4.8,1.9
					c-0.9,1.1-1.5,2.3-1.7,3.7c0.8-0.1,1.5,0,2.2,0.4c0.7,0.3,1.3,0.8,1.7,1.5c0.2,0.3,0.3,0.6,0.4,0.9c0.1,0.3,0.1,0.7,0,1
					c-0.1,0.3-0.1,0.6-0.2,0.9s-0.2,0.5-0.4,1s-0.3,0.7-0.4,0.9l-0.1,0.4c2.1,0.8,5.2,0.6,9.4-0.7C334.7,69,334.8,68.1,334.7,67.3z
					 M324.6,84.5c1.6,0,3.4-1.4,5.2-4.2c1.6-2.2,2.8-4.7,3.8-7.2c-3,1.1-6.3,1.2-9.4,0.3c-0.5,1.8-0.9,3.7-1,5.6
					c-0.1,1.4,0,2.8,0.3,4.1C323.8,84,324.2,84.5,324.6,84.5L324.6,84.5z"/>
				<path class="st0" d="M412.3,80.2c0.6,0.7,0.6,1.3,0,1.8c-1.1,0.9-2.4,1.7-3.7,2.2c-1.3,0.5-2.7,0.8-4.1,0.9
					c-2.3,0.1-4.5-0.3-6.6-1.1c-2.5-1.1-5-2.3-7.4-3.6l-1.5-0.9c-0.4-0.3-0.9-0.6-1.4-0.8c-0.8,1.4-1.8,2.7-3,3.8
					c-0.9,0.8-2,1.5-3.1,2c-0.9,0.3-1.8,0.5-2.7,0.5c-1.7,0-3.3-0.5-4.6-1.5c-1.3-1-2-2.6-2-4.9c0-1.3,0.4-2.6,1.3-3.5
					c0.7-0.9,1.7-1.7,2.8-2.1c1-0.4,2-0.6,3.1-0.6c1.6,0.1,3.3,0.4,4.8,1c0.7-3.6,1.1-7.2,1.3-10.9c0.3-4.8,0.5-7.8,0.7-9.1
					c0.2-2.3,0.6-4.6,1.2-6.9c-5.7-1.3-10.3-0.6-13.6,1.9c-1.5,1.2-2.8,2.8-3.6,4.6c-0.2,0.5-0.6,0.9-1.2,1c-0.5,0.1-1,0-1.3-0.4
					c-0.3-0.4-0.4-0.9-0.2-1.3c0.9-2.6,2.6-4.8,4.9-6.3c4-3,9.4-3.7,16-2.1c1.1-2.7,3.8-4.5,6.8-4.4c1.3-0.1,2.6,0.4,3.4,1.5
					c0.6,0.9,1,2,1,3.1c0,1.4-0.8,2.6-1.9,3.4c-1.3,1-3.1,1.1-5.6,0.4c-0.4,2.4-0.6,4.9-0.7,7.3c-0.1,0.5-0.2,2.1-0.4,4.8
					s-0.3,4.6-0.4,5.7s-0.3,2.6-0.6,4.6c-0.2,1.8-0.6,3.5-1.2,5.2c0,0.1,0,0.2-0.1,0.3c1.9,1.1,3.8,2.2,5.8,3.1
					c2.4,1.2,5.1,2.1,7.8,2.4c3.6,0.4,6.3-0.1,8.2-1.4c0.4-0.4,1.1-0.4,1.5,0C412.2,79.9,412.2,80,412.3,80.2z M377.3,81.5
					c0.9,0,1.9-0.2,2.7-0.7c0.8-0.4,1.5-1,2-1.7c0.5-0.7,0.8-1.2,1.1-1.6c0.2-0.3,0.4-0.7,0.5-1c-1.5-0.8-3.1-1.2-4.8-1.3
					c-0.9,0-1.8,0.4-2.5,1.1c-0.7,0.7-1.1,1.6-1.3,2.6C375,80.6,375.8,81.5,377.3,81.5z M395.4,42c-1.1,0-2,1-2.6,2.9
					c0.8,0.3,1.7,0.4,2.6,0.3c1-0.1,1.5-0.5,1.5-1.3c0-0.2,0-0.5-0.1-0.7c-0.1-0.3-0.2-0.6-0.5-0.8C396.1,42.2,395.8,42,395.4,42z"
					/>
				<path class="st0" d="M423.2,65.1c0.3-0.4,0.8-0.5,1.3-0.4c0.7,0.2,1.2,1,1,1.7l-0.3,0.6c-0.8,0.9-1.7,1.7-2.7,2.3
					c-1.3,0.9-2.7,1.7-4.2,2.3c-0.3,1.5-0.8,2.9-1.5,4.3c-0.8,1.7-1.7,3.4-2.7,5.1c-1.1,1.7-2.4,3.2-4,4.5c-1.4,1.1-3.2,1.7-5,1.8
					c-4.5,0-6.7-3.4-6.7-10.2c0-2.9,0.5-5.8,1.5-8.5c-0.6-1.4-0.8-2.8-0.8-4.3c0-0.8,0.2-1.6,0.5-2.4c0.4-1.1,0.9-2.1,1.4-3.1
					c0.7-1.3,1.9-2.3,3.2-2.9c1.6-0.8,3.5-1.2,5.3-1.2c1.6-0.1,3.1,0.3,4.5,1.1c1.1,0.6,2.1,1.5,2.8,2.5c0.7,1,1.1,2.2,1.4,3.4
					c0.3,0.9,0.5,1.9,0.6,2.9c0.1,1.2,0.1,2.4,0,3.6C420.5,67.5,422,66.4,423.2,65.1z M416.1,67.3v-1.2c0-0.5-0.1-1.1-0.1-1.9
					c-0.1-0.8-0.3-1.5-0.6-2.2c-0.3-0.7-0.7-1.4-1.1-2c-0.5-0.7-1.1-1.2-1.9-1.5c-0.8-0.4-1.8-0.6-2.7-0.6c-1.8-0.2-3.6,0.6-4.8,1.9
					c-0.9,1.1-1.5,2.3-1.7,3.7c0.8-0.1,1.5,0,2.2,0.4c0.7,0.3,1.3,0.8,1.7,1.5c0.2,0.3,0.3,0.6,0.4,0.9c0.1,0.3,0.1,0.7,0,1
					c0,0.3-0.1,0.6-0.2,0.9c-0.1,0.2-0.2,0.5-0.4,1s-0.3,0.7-0.4,0.9l-0.1,0.4c2.1,0.8,5.2,0.6,9.4-0.7
					C416,69,416.1,68.1,416.1,67.3L416.1,67.3z M406,84.5c1.6,0,3.4-1.4,5.2-4.2c1.6-2.2,2.8-4.7,3.8-7.2c-3,1.1-6.3,1.2-9.4,0.3
					c-0.5,1.8-0.9,3.7-1,5.6c-0.1,1.4,0,2.8,0.3,4.1C405.1,84,405.5,84.5,406,84.5z"/>
				<path class="st0" d="M449.1,65.4c0.2-0.4,0.7-0.7,1.2-0.7c0.5,0,0.9,0.3,1.1,0.7c0.3,0.4,0.4,1,0.1,1.5c-1.6,3-5,5.5-10.1,7.7
					c-1.6,5.5-4.1,8.2-7.4,8.2c-1.1,0-2.2-0.4-3-1.2c-1.1-1.3-1.1-3.2,0-4.5c1.1-1.2,2.5-2.1,4-2.6l2-0.9c0.2-0.8,0.3-1.7,0.4-2.5
					c0.5-5.6,0.1-8.4-1.3-8.4c-1.8,0-4,4.8-6.7,14.4c-1.4,4.7-2.5,9.4-3.4,14.2c-0.9,4.9-1.7,10-2.3,15.3c0,0.2,0,0.3-0.1,0.5
					c-0.3,0.7-1,1.1-1.8,1.1c-0.8-0.1-1.6-0.5-2.1-1.2c-0.5-0.8-0.7-1.8-0.6-2.7c-0.1-5.7,0.1-12.1,0.6-19.1
					c0.2-3.8,0.6-7.6,1.2-11.3c0.4-2.7,1.2-5.4,2.2-8c0.1-0.1,0.1-0.2,0.2-0.3c0.1-0.2,0.2-0.3,0.3-0.5c0.7-0.7,1.7-0.9,2.6-0.6
					c1,0.2,1.8,0.9,2.1,1.9c0.1,0.5,0.1,0.9,0.1,1.4c-0.1,0.5-0.2,1-0.5,1.4c-0.3,0.7-0.5,1.2-0.6,1.4c-0.9,3.2-1.5,6.4-1.9,9.7
					c0.8-3.2,1.7-6.2,2.7-9.1c2.8-7.7,5.6-11.5,8.5-11.5c1.8-0.1,3.5,0.9,4.3,2.5c0.9,1.7,1.3,3.7,1.4,5.6c0,1.2-0.1,2.5-0.3,3.7
					C445.7,69.3,448,67.5,449.1,65.4z M433.8,80c0.3,0,0.6-0.3,1.1-0.9c0.5-0.7,0.9-1.5,1.1-2.3c-1,0.2-1.8,0.7-2.5,1.4
					c-0.3,0.3-0.5,0.7-0.4,1.1C433.1,79.8,433.4,80.1,433.8,80L433.8,80z"/>
				<path class="st0" d="M463.3,65.7c0.1-0.5,0.6-0.9,1.1-1c0.5-0.1,1,0,1.4,0.4c0.4,0.3,0.5,0.8,0.3,1.3c-0.7,1.7-1.5,3.3-2.4,4.8
					c-1.2,1.8-2.6,3.4-4.3,4.8c-1.6,1.4-3.6,2.2-5.7,2.3c-2.1,0.1-4-1-5-2.8c-1-2-1.6-4.2-1.5-6.5c0.1-2.2,0.9-4.3,2.3-6
					c1.4-1.9,3.6-3,6-2.9c0.7,0,1.4,0.1,2,0.4c0.4,0.2,0.8,0.6,1,1c0.1,0.3,0.2,0.7,0.3,1v0.9c-0.1,1.1-0.6,2-1.3,2.8
					c-0.8,0.9-1.7,1.7-2.7,2.3c-0.7,0.5-1.5,0.9-2.4,1.2c-0.1,1.2,0,2.4,0.4,3.5c0.4,1.3,1,2,1.8,2c1.5,0,3.2-1.1,5-3.3
					C461.1,70,462.4,67.9,463.3,65.7z M453.7,65.4l-0.4,0.6c0.7-0.2,1.4-0.7,1.9-1.3c0.4-0.4,0.8-0.9,1-1.4c0-0.1-0.1-0.3-0.2-0.3
					c0,0,0,0-0.1,0C455.2,63.1,454.5,63.9,453.7,65.4z"/>
				<path class="st0" d="M482.1,65.4c0.2-0.4,0.7-0.7,1.2-0.7c0.5,0,0.9,0.3,1.1,0.7c0.3,0.4,0.4,1,0.1,1.4
					c-0.9,1.7-1.9,3.2-3.1,4.7c-1.3,2.1-2.9,3.9-4.8,5.5c-0.6,0.6-1.4,1.1-2.2,1.3c-1.4,0.2-2.7,0.2-4.1,0.1c-1.3-0.1-2.7-0.2-4-0.5
					c-1-0.1-2-0.6-2.6-1.4c-0.5-0.9-0.3-2.1,0.7-3.6c1-1.4,2.2-2.8,3.4-4.1c0.6-0.6,1.3-1.4,2.2-2.2s1.6-1.7,2.4-2.5
					s1.5-1.5,2.1-2.2h-0.9c-0.7,0-2,0.1-3.7,0.2s-3.1,0.2-4.1,0.2c-0.5,0-1-0.3-1.2-0.7c-0.2-0.4-0.2-1,0-1.4
					c0.2-0.5,0.7-0.7,1.2-0.7c1,0,2.5-0.1,4.4-0.2s3.4-0.2,4.3-0.2h1c2.3-0.1,3.8,0.4,4.5,1.4c0.6,0.8,0.6,1.8,0.1,2.6
					c-1.1,1.5-2.3,3-3.6,4.3c-0.7,0.9-1.8,2.2-3.5,4s-2.9,3.2-3.7,4.1c0.5,0.1,1.1,0.1,1.6,0.1c0.8,0.1,1.5,0.1,2.3,0.1l0.8-0.1h0.1
					c0.7-0.3,1.3-0.8,1.7-1.4c1.5-1.5,2.8-3.2,4-5C480.9,67.4,481.7,66.2,482.1,65.4z"/>
				<path class="st0" d="M551.4,64.6c0.5-0.2,1,0,1.3,0.4c0.3,0.4,0.5,0.9,0.4,1.4c-0.1,0.5-0.5,0.9-1,0.9c-2.7,0.5-5.3,1.3-7.9,2.3
					c-0.2,1-0.5,2.3-0.9,3.8s-1,3.5-1.9,5.9c-0.8,2.2-2,4.3-3.6,6c-1.2,1.5-3,2.4-4.9,2.5c-3.5,0-5.3-1.9-5.3-5.8
					c0.1-1.6,0.5-3.2,1.4-4.6c2.3-3.8,5.8-6.8,10-8.4c0.4-2.8,0.6-5.7,0.7-8.5c0.2-4,0.1-7.9-0.3-11.9c-0.3-4-1-5.9-2-5.9
					c-1.3,0-2.7,1.3-4,3.9c-1.5,3-2.7,6.1-3.5,9.3c-1,3.7-1.8,7.4-2.4,11.2c-0.6,3.2-0.9,6.4-1,9.7c0,2.4-0.9,3.5-2.7,3.5
					s-2.6-1.6-2.7-4.8c-0.1-5.3,0.1-10.6,0.7-15.8c0.6-5.9,1.9-11.7,3.7-17.3c-0.6,0.3-1.5,0.6-2.6,1.1s-2.2,0.9-3.1,1.3
					s-1.8,0.8-2.5,1.2c-3.9,2.1-6.1,4.7-6.5,7.8c0,0.5-0.3,1-0.8,1.2c-0.4,0.2-1,0.2-1.4,0c-0.5-0.2-0.7-0.7-0.6-1.2
					c0.4-3.8,2.6-6.9,6.6-9.4c1.3-0.8,2.6-1.5,4-2.1c1.5-0.7,3.1-1.3,4.6-1.9c1.4-0.5,2.7-1.2,4-1.9c0.6-0.4,1.2-0.6,1.9-0.7
					c0.5,0.1,1,0.3,1.3,0.7c0.5,0.6,0.7,1.5,0.5,2.3c-0.1,0.4-0.3,1-0.5,1.8s-0.4,1.4-0.5,1.7c-1.1,4-1.9,8.1-2.4,12.3
					c0.5-2.1,0.9-3.5,1.1-4.2s0.5-1.6,0.9-2.9c0.4-1.1,0.8-2.2,1.3-3.3c0.4-0.9,0.9-1.9,1.5-3c0.5-1,1.1-1.9,1.8-2.7
					c0.6-0.7,1.3-1.3,2.1-1.8c0.7-0.4,1.6-0.7,2.4-0.7c4.3,0,6.5,6.1,6.6,18.4c0,3.4-0.2,6.7-0.6,10.1
					C546.8,65.6,549.1,65,551.4,64.6z M532.1,83.5c1,0,2-0.7,2.9-2.2c0.9-1.3,1.6-2.8,2.1-4.3c0.5-1.4,0.9-2.8,1.2-4.3
					c-2,0.9-3.9,2.2-5.4,3.8c-1.5,1.4-2.4,3.3-2.5,5.4c-0.1,0.8,0.4,1.5,1.1,1.6c0,0,0,0,0.1,0H532.1z"/>
				<path class="st0" d="M558.7,76.5c-0.3,0.3-0.8,0.5-1.2,0.5c-0.9,0-1.7-0.8-1.7-1.7c0-0.9,0.8-1.7,1.7-1.7c0.9,0,1.7,0.8,1.7,1.7
					l0,0C559.2,75.7,559,76.2,558.7,76.5z"/>
			</g>
		</g>
		<path class="st0" d="M412.8,51.1c0,0,3.2-10.4,6.4-7.5C422.2,46.6,412.8,51.1,412.8,51.1z"/>
	</g>
</g>
</svg>
