<svg xmlns="http://www.w3.org/2000/svg" viewBox="0 0 140.44 69.1"><defs><style>.cls-1{fill:#144372;}.cls-2{fill:#200c16;}</style></defs><g id="Capa_2" data-name="Capa 2"><g id="arte"><path class="cls-1" d="M27.24,61.87H23.18v4.28H21.42V56.06h6.41v1.41H23.18v3h4.06Z"/><path class="cls-1" d="M33.45,65.42a2.63,2.63,0,0,1-2.11.87,2.33,2.33,0,0,1-1.85-.72,3,3,0,0,1-.63-2.06V58.65h1.69v4.84c0,.95.39,1.43,1.18,1.43A1.68,1.68,0,0,0,33.39,64V58.65h1.68v7.5H33.49Z"/><path class="cls-1" d="M38.58,66.15H36.9V55.5h1.68Z"/><path class="cls-1" d="M42.21,66.15H40.52V55.5h1.69Z"/><path class="cls-1" d="M48.24,64.11a.74.74,0,0,0-.37-.68A3.72,3.72,0,0,0,46.64,63a6,6,0,0,1-1.43-.46A1.9,1.9,0,0,1,44,60.79a2,2,0,0,1,.81-1.63,3.27,3.27,0,0,1,2.08-.65,3.36,3.36,0,0,1,2.18.67,2.1,2.1,0,0,1,.82,1.72H48.16a1,1,0,0,0-.36-.8,1.37,1.37,0,0,0-1-.33,1.48,1.48,0,0,0-.9.26.82.82,0,0,0-.35.69.69.69,0,0,0,.32.6,4.5,4.5,0,0,0,1.32.43,6.57,6.57,0,0,1,1.56.52,2.25,2.25,0,0,1,.84.73,1.85,1.85,0,0,1,.27,1,2,2,0,0,1-.84,1.64,3.57,3.57,0,0,1-2.2.63A3.91,3.91,0,0,1,45.22,66,2.77,2.77,0,0,1,44.1,65a2.16,2.16,0,0,1-.4-1.25h1.63a1.22,1.22,0,0,0,.45.91,1.75,1.75,0,0,0,1.11.33,1.69,1.69,0,0,0,1-.26A.77.77,0,0,0,48.24,64.11Z"/><path class="cls-1" d="M53.48,56.83v1.82H54.8V59.9H53.48v4.18a.87.87,0,0,0,.17.62.76.76,0,0,0,.6.19,3,3,0,0,0,.59-.06v1.3a4.38,4.38,0,0,1-1.11.16c-1.29,0-1.94-.72-1.94-2.14V59.9H50.56V58.65h1.23V56.83Z"/><path class="cls-1" d="M60.57,66.15a2.51,2.51,0,0,1-.2-.7,2.61,2.61,0,0,1-2,.84,2.65,2.65,0,0,1-1.84-.65,2,2,0,0,1-.71-1.59,2.12,2.12,0,0,1,.89-1.84,4.27,4.27,0,0,1,2.54-.64h1v-.49a1.33,1.33,0,0,0-.33-.94,1.31,1.31,0,0,0-1-.35,1.48,1.48,0,0,0-.94.29.88.88,0,0,0-.37.73H56a1.87,1.87,0,0,1,.4-1.15,2.74,2.74,0,0,1,1.12-.84,3.79,3.79,0,0,1,1.57-.31,3.18,3.18,0,0,1,2.1.66A2.38,2.38,0,0,1,62,61v3.39A4,4,0,0,0,62.28,66v.12Zm-1.85-1.21a1.8,1.8,0,0,0,.93-.25,1.56,1.56,0,0,0,.67-.65V62.63h-.91A2.56,2.56,0,0,0,58,63a1.08,1.08,0,0,0-.47.93,1,1,0,0,0,.32.77A1.29,1.29,0,0,0,58.72,64.94Z"/><path class="cls-1" d="M66.85,64.94a1.53,1.53,0,0,0,1-.36,1.27,1.27,0,0,0,.45-.91h1.58a2.49,2.49,0,0,1-.43,1.3,2.87,2.87,0,0,1-1.11,1,3.26,3.26,0,0,1-1.51.36,3.21,3.21,0,0,1-2.5-1,4.06,4.06,0,0,1-.92-2.81v-.18a4,4,0,0,1,.91-2.74,3.17,3.17,0,0,1,2.5-1,3.08,3.08,0,0,1,2.18.78,2.76,2.76,0,0,1,.88,2.05H68.34a1.58,1.58,0,0,0-.44-1.06,1.42,1.42,0,0,0-1.05-.42,1.49,1.49,0,0,0-1.27.6,3.07,3.07,0,0,0-.45,1.79v.27a3.09,3.09,0,0,0,.44,1.82A1.5,1.5,0,0,0,66.85,64.94Z"/><path class="cls-1" d="M73.63,62.93l-.75.77v2.45H71.2V55.5h1.68v6.14l.53-.65,2.07-2.34h2l-2.79,3.13,3.08,4.37H75.86Z"/><path class="cls-1" d="M82.3,66.15V56.06h3a4.8,4.8,0,0,1,2.38.59,4.1,4.1,0,0,1,1.6,1.7,5.33,5.33,0,0,1,.57,2.5v.51a5.32,5.32,0,0,1-.57,2.52,4.06,4.06,0,0,1-1.63,1.68,5,5,0,0,1-2.43.59Zm1.75-8.68v7.28H85.2a2.66,2.66,0,0,0,2.12-.86,3.78,3.78,0,0,0,.75-2.48v-.56a3.83,3.83,0,0,0-.72-2.51,2.51,2.51,0,0,0-2.07-.87Z"/><path class="cls-1" d="M94.71,66.29a3.49,3.49,0,0,1-2.59-1,3.68,3.68,0,0,1-1-2.69v-.2a4.5,4.5,0,0,1,.44-2,3.2,3.2,0,0,1,3-1.87,3,3,0,0,1,2.37,1,4.15,4.15,0,0,1,.83,2.76v.68h-4.9a2.26,2.26,0,0,0,.62,1.47,1.86,1.86,0,0,0,1.37.54A2.3,2.3,0,0,0,96.7,64l.9.86a3.06,3.06,0,0,1-1.2,1A3.85,3.85,0,0,1,94.71,66.29Zm-.2-6.43a1.45,1.45,0,0,0-1.12.49,2.53,2.53,0,0,0-.54,1.35h3.21v-.12a2.08,2.08,0,0,0-.45-1.28A1.42,1.42,0,0,0,94.51,59.86Z"/><path class="cls-1" d="M103.23,64.11a.74.74,0,0,0-.37-.68,3.9,3.9,0,0,0-1.23-.42,6,6,0,0,1-1.43-.46,1.91,1.91,0,0,1-1.27-1.76,2,2,0,0,1,.82-1.63,3.27,3.27,0,0,1,2.08-.65,3.31,3.31,0,0,1,2.17.67,2.09,2.09,0,0,1,.83,1.72h-1.68a1,1,0,0,0-.36-.8,1.37,1.37,0,0,0-1-.33,1.48,1.48,0,0,0-.9.26.79.79,0,0,0-.35.69.69.69,0,0,0,.32.6,4.5,4.5,0,0,0,1.32.43,6.57,6.57,0,0,1,1.56.52,2.14,2.14,0,0,1,.83.73,1.77,1.77,0,0,1,.28,1,2,2,0,0,1-.84,1.64,3.57,3.57,0,0,1-2.2.63,3.91,3.91,0,0,1-1.64-.33A2.77,2.77,0,0,1,99.09,65a2.16,2.16,0,0,1-.4-1.25h1.63a1.16,1.16,0,0,0,.45.91,2.06,2.06,0,0,0,2.12.07A.77.77,0,0,0,103.23,64.11Z"/><path class="cls-1" d="M106.36,56.7a.89.89,0,0,1,.24-.64,1,1,0,0,1,.71-.26.93.93,0,0,1,.7.26.94.94,0,0,1,0,1.28.92.92,0,0,1-.7.25,1,1,0,0,1-.71-.25A.89.89,0,0,1,106.36,56.7Zm1.79,9.45h-1.69v-7.5h1.69Z"/><path class="cls-1" d="M109.68,62.34a4.39,4.39,0,0,1,.83-2.79,2.63,2.63,0,0,1,2.18-1,2.46,2.46,0,0,1,2,.9l.08-.76h1.52v7.27a3,3,0,0,1-.92,2.33,3.49,3.49,0,0,1-2.48.85,4,4,0,0,1-1.61-.34,2.9,2.9,0,0,1-1.2-.9l.8-1a2.43,2.43,0,0,0,1.91.92,1.9,1.9,0,0,0,1.33-.45,1.77,1.77,0,0,0,.48-1.34v-.5a2.47,2.47,0,0,1-1.94.81,2.62,2.62,0,0,1-2.15-1.05A4.51,4.51,0,0,1,109.68,62.34Zm1.68.15a3,3,0,0,0,.46,1.78,1.5,1.5,0,0,0,1.28.65,1.61,1.61,0,0,0,1.51-.88v-3.3a1.61,1.61,0,0,0-1.5-.85,1.49,1.49,0,0,0-1.29.66A3.35,3.35,0,0,0,111.36,62.49Z"/><path class="cls-1" d="M119.59,58.65l0,.87a2.69,2.69,0,0,1,2.18-1c1.56,0,2.36.9,2.38,2.68v5h-1.68V61.29a1.54,1.54,0,0,0-.31-1.06,1.32,1.32,0,0,0-1-.34,1.61,1.61,0,0,0-1.51.92v5.34H118v-7.5Z"/><path class="cls-1" d="M129.22,66.29a3.47,3.47,0,0,1-2.59-1,3.64,3.64,0,0,1-1-2.69v-.2a4.64,4.64,0,0,1,.43-2A3.35,3.35,0,0,1,127.28,59a3.3,3.3,0,0,1,1.75-.49,2.93,2.93,0,0,1,2.36,1,4.1,4.1,0,0,1,.84,2.76v.68h-4.9A2.26,2.26,0,0,0,128,64.4a1.86,1.86,0,0,0,1.37.54A2.27,2.27,0,0,0,131.2,64l.91.86a3.06,3.06,0,0,1-1.2,1A3.85,3.85,0,0,1,129.22,66.29Zm-.2-6.43a1.45,1.45,0,0,0-1.12.49,2.53,2.53,0,0,0-.54,1.35h3.21v-.12a2.08,2.08,0,0,0-.45-1.28A1.42,1.42,0,0,0,129,59.86Z"/><path class="cls-1" d="M137.46,60.19a3.82,3.82,0,0,0-.68-.06,1.55,1.55,0,0,0-1.56.89v5.13h-1.69v-7.5h1.61l0,.84a1.91,1.91,0,0,1,1.69-1,1.51,1.51,0,0,1,.6.1Z"/><path class="cls-2" d="M103.7,26.57c-.1-.09-.1-.09-.2-.09a1.18,1.18,0,0,0-1.5.9c-.3.89-.8,2.5-1.4,4.8s-1.2,4-1.5,5.09c-2.1,6.11-3.8,9.21-5.1,9.21-.3,0-.5-.8-.6-2.41,0-.8.1-1.89.2-3.19s.5-3.7,1.1-7.2c.5-3.3.8-5.61.9-6.91.2-3.09-.6-4.7-2.5-4.7-2.4,0-4.9,2.5-7.5,7.61.1-.3.2-.7.3-1a1.93,1.93,0,0,0,.3-1v-1a3.19,3.19,0,0,0-2.5-2,2.75,2.75,0,0,0-3,.7,1.21,1.21,0,0,0-.4.8c-.1.09-.1.3-.1.39s0,.23,0,.35A18.33,18.33,0,0,0,79,29.48a20.62,20.62,0,0,1-2.8,3.79c-1.3,1.41-2.3,2.11-3.2,2.11l-.1-.11c-.1,0-.2-.09-.2-.39V33.77a18.25,18.25,0,0,1,.3-3.2,26.38,26.38,0,0,1,.9-4,27.61,27.61,0,0,0,.8-3.09,2.45,2.45,0,0,0-1.3-2.91,4,4,0,0,0-3.5-.39c-.7.2-1.2.89-1.5,2a5.22,5.22,0,0,0-3-.91c-1.8,0-3.7.91-5.7,2.8a10.31,10.31,0,0,0-3,6.41,12.92,12.92,0,0,1-.82,2c-.6,1.09-1,2.4-1.7,3.7a20.61,20.61,0,0,1-1.8,3.2c-.6.89-1.1,1.3-1.4,1.3-.5,0-.9-.61-1.1-1.7a10.12,10.12,0,0,1-.2-3,51,51,0,0,1,1.8-9.5,7.57,7.57,0,0,0,.5-2.61c-.2-.89-1-1.8-2.7-2.39s-2.8-.61-3.5.09c-.3.2-.6,1.2-1.1,3a1.85,1.85,0,0,1-.2.7,35.16,35.16,0,0,1-3.2,5.21c-1.5,2.09-2.4,3.09-2.8,3.09a7.57,7.57,0,0,1-.1-1.5v-2.2a33.24,33.24,0,0,1,.8-5.39,3.63,3.63,0,0,0-.1-2.3,4.92,4.92,0,0,0-2.6-1.8c-1.3-.5-2.2-.4-2.8.1-.8.7-1.3,2.09-1.6,4.09,0,.3-.06.59-.1.88-1.93.16-3.78.27-5.4.53.5-3.21,1.1-7.5,1.6-13a94.78,94.78,0,0,0,.6-10.71,1.55,1.55,0,0,0-.5-1.4,4.08,4.08,0,0,0-1.4-.8,4.77,4.77,0,0,0-1.6,0,16.31,16.31,0,0,0-4.9,1.61,16,16,0,0,0-4.2,3,11.79,11.79,0,0,0-2.8,4.19,11.49,11.49,0,0,0-.6,7.31,13.23,13.23,0,0,0,3.4,6.5,1.48,1.48,0,0,0,1.4.39,1.34,1.34,0,0,0,.9-.89,1.77,1.77,0,0,0-.3-1.41,10.73,10.73,0,0,1-2.7-5.29,10.36,10.36,0,0,1,.5-5.8,11.34,11.34,0,0,1,7-6.2A170.11,170.11,0,0,1,20.7,27,34.92,34.92,0,0,0,6,34.18C2,37.57,0,41.48,0,46a11.9,11.9,0,0,0,2.4,7.09,8.25,8.25,0,0,0,6.9,3.41c4-.1,7.5-2.6,10.3-7.6s5-11.7,6.5-20c1.74-.25,3.63-.5,5.65-.63,0,.54-.05,1.08-.05,1.63a5.32,5.32,0,0,0,.1,1.3,14.16,14.16,0,0,0,.4,2,19.45,19.45,0,0,0,.8,2.2,3.88,3.88,0,0,0,1.4,1.69,3.06,3.06,0,0,0,2,.7,6.31,6.31,0,0,0,3.2-1.29,15.17,15.17,0,0,0,3.8-4.21,6.61,6.61,0,0,0,0,2.8c.2,1.31.4,2.5.7,3.81a6.69,6.69,0,0,0,2.1,3.39,5.85,5.85,0,0,0,4,1.5,4.55,4.55,0,0,0,2-.5,5.11,5.11,0,0,0,1.9-1.7c.6-.8,1.2-1.59,1.6-2.19a17.48,17.48,0,0,0,1.5-3.11l.23-.53a9.57,9.57,0,0,0,.47,1,3.85,3.85,0,0,0,3.6,2.3A4.54,4.54,0,0,0,62.6,39a1.69,1.69,0,0,0,1-.3l.9-.61a5.69,5.69,0,0,0,.8-.69,4.62,4.62,0,0,0,.7-.7c.2-.2.4-.5.6-.7a5.92,5.92,0,0,1,.4-.6c.1-.2.3-.5.4-.7.7,2.8,2.3,4.3,4.9,4.3a6.61,6.61,0,0,0,3.6-1.41,17,17,0,0,0,3.4-3.69l.63-.94c0,.88.08,1.76.17,2.63a3.17,3.17,0,0,0,1.6,2.91,3,3,0,0,0,3,.2c.5-.3.7-.61.7-.91A14.07,14.07,0,0,1,87,32.88a11.16,11.16,0,0,1,2.8-4V30c-.1.9-.3,2.29-.6,4.2s-.5,3.2-.6,4.09c-.9,8.3.9,12.5,5.4,12.5,2.9,0,6.4-7.5,10.6-22.59A1.1,1.1,0,0,0,103.7,26.57ZM7.9,53.38c-1.4.1-2.5-.81-3.5-2.5A10.7,10.7,0,0,1,3,45.68a11.39,11.39,0,0,1,3.4-7.41,29.2,29.2,0,0,1,7-5.59,33,33,0,0,1,6.8-2.8C16.7,45.57,12.6,53.38,7.9,53.38ZM67,29.27a11.73,11.73,0,0,1-1.5,3.5c-1,1.5-1.9,2.3-2.9,2.3-.5,0-.8-.39-1-1.3a8.5,8.5,0,0,1-.3-2.29,10.92,10.92,0,0,1,1.6-5,4,4,0,0,1,4-2.1c.5-.11.7.19.7.8A28.82,28.82,0,0,0,67,29.27Z"/><path class="cls-2" d="M138,2.58a1.2,1.2,0,0,1,1.4-.3,1.28,1.28,0,0,1,1,1,1.25,1.25,0,0,1-.4,1.3,13.63,13.63,0,0,1-6,3,19.92,19.92,0,0,1-7.7.3c-1.4-.3-4.1-.9-8-1.9a.37.37,0,0,0-.3-.1h-.3l-.4-.2v.7a18.41,18.41,0,0,1-.6,1.8,12.8,12.8,0,0,0-.5,1.7,74.77,74.77,0,0,0-1.8,8.2c2.8.3,5,.2,6.4-.5a1.36,1.36,0,0,1,1.5,0,1.39,1.39,0,0,1,.7,1.2,1.23,1.23,0,0,1-.7,1.1c-2,1-4.7,1.3-8,.9h-.1l-.1-.1c-.2,1.2-.4,2.4-.5,3.5a116.05,116.05,0,0,0-.7,16.7,3.3,3.3,0,0,1,0,1.4c-.1.5-.1,1-.2,1.5a3.1,3.1,0,0,1-.6,1.3,3.53,3.53,0,0,1-1.3.8,1.92,1.92,0,0,1-2.5-1.1,8.53,8.53,0,0,1-.8-3.5,120.87,120.87,0,0,1,.7-15.9c.2-1.9.5-3.7.8-5.4h-.1a11.88,11.88,0,0,0-5.3.1,1.09,1.09,0,0,1-1.3-.3,1.79,1.79,0,0,1-.4-1.4,1.41,1.41,0,0,1,1-1.1,14.68,14.68,0,0,1,6.6-.2,71.68,71.68,0,0,1,3.5-12c0-.1,0-.2.1-.2s0-.2.1-.2l-4.2-1c-3.5-.6-6.3-.3-8.3,1-.8.6-1.4.3-1.9-.6a1.17,1.17,0,0,1,.5-1.6h.1c2.5-1.6,5.7-2.1,9.7-1.5,2.1.4,5.1,1.1,8.9,2.1s6.6,1.7,8.2,2C130.9,5.88,134.9,5.08,138,2.58Z"/></g></g></svg>